<svg class='menu__item-icon' width="23" height="29" viewBox="0 0 23 29" fill="none" xmlns="http://www.w3.org/2000/svg">
    <path d="M4.25 0C2.25059 0 0.625 1.62559 0.625 3.625V25.375C0.625 27.3744 2.25059 29 4.25 29H18.75C20.7494 29 22.375 27.3744 22.375 25.375V9.0625H15.125C14.1225 9.0625 13.3125 8.25254 13.3125 7.25V0H4.25ZM15.125 0V7.25H22.375L15.125 0ZM12.8594 23.1094C12.8594 23.8627 12.2533 24.4688 11.5 24.4688C10.7467 24.4688 10.1406 23.8627 10.1406 23.1094V17.3264L8.38477 19.0822C7.85234 19.6146 6.99141 19.6146 6.46465 19.0822C5.93789 18.5498 5.93223 17.6889 6.46465 17.1621L10.5428 13.084C11.0752 12.5516 11.9361 12.5516 12.4629 13.084L16.541 17.1621C17.0734 17.6945 17.0734 18.5555 16.541 19.0822C16.0086 19.609 15.1477 19.6146 14.6209 19.0822L12.865 17.3264V23.1094H12.8594Z" fill="#0057B8"/>
</svg>