<svg width="29" height="27" viewBox="0 0 29 27" fill="none" xmlns="http://www.w3.org/2000/svg">
    <path d="M29 22.5625C29 24.5619 27.3744 26.1875 25.375 26.1875H3.625C1.62559 26.1875 0 24.5619 0 22.5625V4.4375C0 2.43809 1.62559 0.8125 3.625 0.8125H10.2803C11.2432 0.8125 12.1664 1.19199 12.8461 1.87168L14.3471 3.37266C15.0268 4.05234 15.95 4.43184 16.9129 4.43184H25.375C27.3744 4.43184 29 6.05742 29 8.05684V22.5625ZM13.1406 20.2969C13.1406 21.0502 13.7467 21.6562 14.5 21.6562C15.2533 21.6562 15.8594 21.0502 15.8594 20.2969V16.6719H19.4844C20.2377 16.6719 20.8438 16.0658 20.8438 15.3125C20.8438 14.5592 20.2377 13.9531 19.4844 13.9531H15.8594V10.3281C15.8594 9.5748 15.2533 8.96875 14.5 8.96875C13.7467 8.96875 13.1406 9.5748 13.1406 10.3281V13.9531H9.51562C8.7623 13.9531 8.15625 14.5592 8.15625 15.3125C8.15625 16.0658 8.7623 16.6719 9.51562 16.6719H13.1406V20.2969Z" fill="#0057B8"/>
</svg>
