<svg width="27" height="29" viewBox="0 0 27 29" fill="none" xmlns="http://www.w3.org/2000/svg">
<path d="M8.47031 1.00254L8.0625 1.8125H2.625C1.62246 1.8125 0.8125 2.62246 0.8125 3.625C0.8125 4.62754 1.62246 5.4375 2.625 5.4375H24.375C25.3775 5.4375 26.1875 4.62754 26.1875 3.625C26.1875 2.62246 25.3775 1.8125 24.375 1.8125H18.9375L18.5297 1.00254C18.2238 0.385156 17.5951 0 16.9098 0H10.0902C9.40488 0 8.77617 0.385156 8.47031 1.00254ZM24.375 7.25H2.625L3.82578 26.4512C3.91641 27.8842 5.10586 29 6.53887 29H20.4611C21.8941 29 23.0836 27.8842 23.1742 26.4512L24.375 7.25Z" fill="#0057B8"/>
</svg>
