<svg width="29" height="29" viewBox="0 0 29 29" fill="none" xmlns="http://www.w3.org/2000/svg">
<path d="M20.5437 1.09314L17.8022 3.83455L25.1655 11.1978L27.9069 8.45642C29.3229 7.0404 29.3229 4.74646 27.9069 3.33044L25.6753 1.09314C24.2593 -0.322876 21.9653 -0.322876 20.5493 1.09314H20.5437ZM16.5222 5.11462L3.31924 18.3232C2.73017 18.9123 2.29971 19.6429 2.06181 20.4416L0.0567363 27.2554C-0.0848652 27.7369 0.0454082 28.2523 0.39658 28.6035C0.747752 28.9547 1.26318 29.0849 1.73896 28.949L8.55283 26.9439C9.35146 26.706 10.0821 26.2756 10.6712 25.6865L23.8854 12.4779L16.5222 5.11462Z" fill="#0057B8"/>
</svg>
