<svg width="23" height="30" viewBox="0 0 23 30" fill="none" xmlns="http://www.w3.org/2000/svg">
    <path d="M4.25 0.5C2.25059 0.5 0.625 2.12559 0.625 4.125V25.875C0.625 27.8744 2.25059 29.5 4.25 29.5H18.75C20.7494 29.5 22.375 27.8744 22.375 25.875V9.5625H15.125C14.1225 9.5625 13.3125 8.75254 13.3125 7.75V0.5H4.25ZM15.125 0.5V7.75H22.375L15.125 0.5ZM6.96875 15H16.0312C16.5297 15 16.9375 15.4078 16.9375 15.9062C16.9375 16.4047 16.5297 16.8125 16.0312 16.8125H6.96875C6.47031 16.8125 6.0625 16.4047 6.0625 15.9062C6.0625 15.4078 6.47031 15 6.96875 15ZM6.96875 18.625H16.0312C16.5297 18.625 16.9375 19.0328 16.9375 19.5312C16.9375 20.0297 16.5297 20.4375 16.0312 20.4375H6.96875C6.47031 20.4375 6.0625 20.0297 6.0625 19.5312C6.0625 19.0328 6.47031 18.625 6.96875 18.625ZM6.96875 22.25H16.0312C16.5297 22.25 16.9375 22.6578 16.9375 23.1562C16.9375 23.6547 16.5297 24.0625 16.0312 24.0625H6.96875C6.47031 24.0625 6.0625 23.6547 6.0625 23.1562C6.0625 22.6578 6.47031 22.25 6.96875 22.25Z" fill="#0388D4"/>
</svg>
