<svg width="31" height="32" viewBox="0 0 31 32" fill="none" xmlns="http://www.w3.org/2000/svg">
<path d="M14.1982 0.845093C15.0398 0.542358 15.9602 0.542358 16.8078 0.845093L28.4328 4.99861C29.9707 5.54958 31 7.00876 31 8.64958V23.3504C31 24.9851 29.9707 26.4504 28.4268 27.0013L16.8018 31.1549C15.9602 31.4576 15.0398 31.4576 14.1922 31.1549L2.56719 27.0013C1.0293 26.4504 0 24.9912 0 23.3504V8.64958C0 7.01482 1.0293 5.54958 2.57324 4.99861L14.1982 0.845093ZM15.5 4.49607L4.98301 8.24998L15.5 12.0039L26.017 8.24998L15.5 4.49607ZM17.4375 26.8136L27.125 23.3564V11.9736L17.4375 15.4308V26.8136Z" fill="#0057B8"/>
</svg>
