<svg width="27" height="24" viewBox="0 0 27 24" fill="none" xmlns="http://www.w3.org/2000/svg">
<path d="M0 3.875C0 2.08242 1.51348 0.625 3.375 0.625H23.625C25.4865 0.625 27 2.08242 27 3.875V20.125C27 21.9176 25.4865 23.375 23.625 23.375H3.375C1.51348 23.375 0 21.9176 0 20.125V3.875ZM17.0754 9.2832C16.8381 8.94805 16.4479 8.75 16.0312 8.75C15.6146 8.75 15.2191 8.94805 14.9871 9.2832L10.3992 15.7629L9.00176 14.082C8.75918 13.7926 8.39531 13.625 8.01562 13.625C7.63594 13.625 7.2668 13.7926 7.02949 14.082L3.65449 18.1445C3.34863 18.5102 3.29063 19.0129 3.50156 19.4344C3.7125 19.8559 4.15547 20.125 4.64062 20.125H9.70312H11.3906H22.3594C22.8287 20.125 23.2611 19.8762 23.4773 19.475C23.6936 19.0738 23.6672 18.5914 23.4035 18.2207L17.0754 9.2832ZM5.90625 8.75C7.30371 8.75 8.4375 7.6582 8.4375 6.3125C8.4375 4.9668 7.30371 3.875 5.90625 3.875C4.50879 3.875 3.375 4.9668 3.375 6.3125C3.375 7.6582 4.50879 8.75 5.90625 8.75Z" fill="#0388D4"/>
</svg>
