<svg width="31" height="26" viewBox="0 0 31 26" fill="none" xmlns="http://www.w3.org/2000/svg">
<path d="M6.975 8.44422C4.83406 8.44422 3.1 6.74531 3.1 4.64777C3.1 2.55023 4.83406 0.851318 6.975 0.851318C9.11594 0.851318 10.85 2.55023 10.85 4.64777C10.85 6.74531 9.11594 8.44422 6.975 8.44422ZM24.8 8.44422C22.6591 8.44422 20.925 6.74531 20.925 4.64777C20.925 2.55023 22.6591 0.851318 24.8 0.851318C26.9409 0.851318 28.675 2.55023 28.675 4.64777C28.675 6.74531 26.9409 8.44422 24.8 8.44422ZM0 15.0263C0 12.2312 2.31531 9.9628 5.16828 9.9628H7.23656C8.00672 9.9628 8.73812 10.1289 9.39687 10.4231C9.33391 10.7648 9.30484 11.1207 9.30484 11.4814C9.30484 13.2942 10.1186 14.9219 11.4022 16.0371C11.3925 16.0371 11.3828 16.0371 11.3683 16.0371H1.03172C0.465 16.0371 0 15.5816 0 15.0263ZM19.6317 16.0371C19.622 16.0371 19.6123 16.0371 19.5978 16.0371C20.8862 14.9219 21.6952 13.2942 21.6952 11.4814C21.6952 11.1207 21.6612 10.7696 21.6031 10.4231C22.2619 10.1242 22.9933 9.9628 23.7634 9.9628H25.8317C28.6847 9.9628 31 12.2312 31 15.0263C31 15.5863 30.535 16.0371 29.9683 16.0371H19.6317ZM20.15 11.4814C20.15 13.9965 18.0672 16.0371 15.5 16.0371C12.9328 16.0371 10.85 13.9965 10.85 11.4814C10.85 8.96624 12.9328 6.92564 15.5 6.92564C18.0672 6.92564 20.15 8.96624 20.15 11.4814ZM6.2 23.8815C6.2 20.3888 9.09172 17.5557 12.6567 17.5557H18.3433C21.9083 17.5557 24.8 20.3888 24.8 23.8815C24.8 24.5791 24.2236 25.1486 23.5067 25.1486H7.49328C6.78125 25.1486 6.2 24.5839 6.2 23.8815Z" fill="#0057B8"/>
</svg>
